<svg xmlns="http://www.w3.org/2000/svg" xmlns:xlink="http://www.w3.org/1999/xlink" viewBox="0,0,256,256" width="16px" height="16px"><g fill="#26a7de" fill-rule="nonzero" stroke="none" stroke-width="1" stroke-linecap="butt" stroke-linejoin="miter" stroke-miterlimit="10" stroke-dasharray="" stroke-dashoffset="0" font-family="none" font-weight="none" font-size="none" text-anchor="none" style="mix-blend-mode: normal"><g transform="scale(16,16)"><path d="M2.5,2c-0.82422,0 -1.5,0.67578 -1.5,1.5v9c0,0.82422 0.67578,1.5 1.5,1.5h11c0.82422,0 1.5,-0.67578 1.5,-1.5v-9c0,-0.82422 -0.67578,-1.5 -1.5,-1.5zM2.5,3h11c0.28125,0 0.5,0.21875 0.5,0.5v6.79297l-3.5,-3.5l-2,2l-3,-3l-3.5,3.5v-5.79297c0,-0.28125 0.21875,-0.5 0.5,-0.5zM12,4c-0.55078,0 -1,0.44922 -1,1c0,0.55078 0.44922,1 1,1c0.55078,0 1,-0.44922 1,-1c0,-0.55078 -0.44922,-1 -1,-1zM5.5,7.20703l3.64844,3.64844l0.70313,-0.71094l-0.64453,-0.64453l1.29297,-1.29297l3.5,3.5v0.79297c0,0.28125 -0.21875,0.5 -0.5,0.5h-11c-0.28125,0 -0.5,-0.21875 -0.5,-0.5v-1.79297z"></path></g></g></svg>